<mxfile host="drawio-plugin" modified="2023-02-27T11:37:02.598Z" agent="5.0 (Macintosh; Intel Mac OS X 10_15_7) AppleWebKit/537.36 (KHTML, like Gecko) Chrome/104.0.5112.102 Safari/537.36" etag="z-xIbQb_D54hcW9gMK6K" version="20.5.3" type="embed"><diagram id="Ut5pgSIDFxN2BnhGWpWC" name="Page-1"><mxGraphModel dx="584" dy="677" grid="1" gridSize="10" guides="1" tooltips="1" connect="1" arrows="1" fold="1" page="1" pageScale="1" pageWidth="850" pageHeight="1100" math="0" shadow="0"><root><mxCell id="0"/><mxCell id="1" parent="0"/><mxCell id="2" value="ESP32" style="rounded=0;whiteSpace=wrap;html=1;" parent="1" vertex="1"><mxGeometry x="640" y="230" width="80" height="160" as="geometry"/></mxCell><mxCell id="3" value="esp32 cam" style="ellipse;whiteSpace=wrap;html=1;aspect=fixed;" vertex="1" parent="1"><mxGeometry x="210" y="160" width="80" height="80" as="geometry"/></mxCell><mxCell id="4" value="buzzer" style="ellipse;whiteSpace=wrap;html=1;aspect=fixed;" vertex="1" parent="1"><mxGeometry x="230" y="330" width="80" height="80" as="geometry"/></mxCell><mxCell id="5" value="sound sensor" style="ellipse;whiteSpace=wrap;html=1;aspect=fixed;" vertex="1" parent="1"><mxGeometry x="250" y="510" width="80" height="80" as="geometry"/></mxCell><mxCell id="6" value="pir sensor" style="ellipse;whiteSpace=wrap;html=1;aspect=fixed;" vertex="1" parent="1"><mxGeometry x="370" y="250" width="80" height="80" as="geometry"/></mxCell><mxCell id="7" value="" style="ellipse;whiteSpace=wrap;html=1;aspect=fixed;" vertex="1" parent="1"><mxGeometry x="345" y="80" width="80" height="80" as="geometry"/></mxCell></root></mxGraphModel></diagram></mxfile>